<svg width="108" height="43" viewBox="0 0 108 43" fill="none" xmlns="http://www.w3.org/2000/svg">
<g id="Clip path group">
<mask id="mask0_12127_138" style="mask-type:luminance" maskUnits="userSpaceOnUse" x="0" y="0" width="108" height="43">
<g id="clippath">
<path id="Vector" d="M108 0H0V43H108V0Z" fill="white"/>
</g>
</mask>
<g mask="url(#mask0_12127_138)">
<g id="Group">
<path id="Vector_2" d="M68.5117 4.10197H73.5866V0.910921C73.5866 0.407368 73.082 0 72.4589 0H69.6395C69.0164 0 68.5117 0.407368 68.5117 0.910921V4.10197Z" fill="#F5F5EF"/>
<path id="Vector_3" d="M73.5866 1.13159H68.5117V4.21232C68.5117 4.69889 69.0164 5.09212 69.6395 5.09212H72.4589C73.082 5.09212 73.5866 4.69889 73.5866 4.21232V1.13159Z" fill="#F5F5EF"/>
<path id="Vector_4" d="M54.414 0H37.2156C36.5925 0 36.0878 0.506382 36.0878 1.13158V3.96053C36.0878 4.58572 36.5925 5.0921 37.2156 5.0921H58.3611C58.9842 5.0921 59.4889 5.59849 59.4889 6.22368V9.05263C59.4889 9.67783 58.9842 10.1842 58.3611 10.1842H40.5904C39.6939 10.1842 38.8339 10.5407 38.1968 11.1772L35.1039 14.2805C34.4695 14.917 34.1143 15.7799 34.1143 16.6823V24.0545C34.1143 24.9541 34.4695 25.817 35.1039 26.4563L38.1968 29.5597C38.8311 30.1962 39.691 30.5526 40.5904 30.5526H58.0876C58.9842 30.5526 59.8441 30.1962 60.4813 29.5597L63.5742 26.4563C64.2086 25.8198 64.5638 24.957 64.5638 24.0545V6.49809C64.5638 5.59849 64.2086 4.73566 63.5742 4.09632L60.4813 0.992961C59.8469 0.356447 58.987 0 58.0876 0L54.414 0ZM59.4889 20.3684V24.3289C59.4889 24.9541 58.9842 25.4605 58.3611 25.4605H40.3169C39.6939 25.4605 39.1892 24.9541 39.1892 24.3289V16.4079C39.1892 15.7827 39.6939 15.2763 40.3169 15.2763H58.3611C58.9842 15.2763 59.4889 15.7827 59.4889 16.4079V20.3684Z" fill="#F5F5EF"/>
<path id="Vector_5" d="M97.8505 0H80.6521C80.029 0 79.5244 0.506382 79.5244 1.13158V3.96053C79.5244 4.58572 80.029 5.0921 80.6521 5.0921H101.798C102.421 5.0921 102.925 5.59849 102.925 6.22368V9.05263C102.925 9.67783 102.421 10.1842 101.798 10.1842H84.0269C83.1304 10.1842 82.2705 10.5407 81.6333 11.1772L78.5404 14.2805C77.906 14.917 77.5508 15.7799 77.5508 16.6823V24.0545C77.5508 24.9541 77.906 25.817 78.5404 26.4563L81.6333 29.5597C82.2676 30.1962 83.1276 30.5526 84.0269 30.5526H101.524C102.421 30.5526 103.281 30.1962 103.918 29.5597L107.011 26.4563C107.645 25.8198 108 24.957 108 24.0545V6.49809C108 5.59849 107.645 4.73566 107.011 4.09632L103.918 0.992961C103.283 0.356447 102.424 0 101.524 0L97.8505 0ZM102.925 20.3684V24.3289C102.925 24.9541 102.421 25.4605 101.798 25.4605H83.7535C83.1304 25.4605 82.6257 24.9541 82.6257 24.3289V16.4079C82.6257 15.7827 83.1304 15.2763 83.7535 15.2763H101.798C102.421 15.2763 102.925 15.7827 102.925 16.4079V20.3684Z" fill="#F5F5EF"/>
<path id="Vector_6" d="M20.2997 0H6.47617C5.5796 0 4.71968 0.356447 4.08249 0.992961L0.98961 4.09914C0.355245 4.73566 0 5.59849 0 6.50092V24.0574C0 24.957 0.355245 25.8198 0.98961 26.4591L4.08249 29.5625C4.71686 30.199 5.57678 30.5555 6.47617 30.5555H23.9734C24.8699 30.5555 25.7299 30.199 26.367 29.5625L29.4599 26.4591C30.0943 25.8226 30.4495 24.9598 30.4495 24.0574V1.13158C30.4495 0.506382 29.9449 0 29.3218 0H20.2997ZM25.3746 10.1842V24.3289C25.3746 24.9541 24.8699 25.4605 24.2469 25.4605H6.20268C5.5796 25.4605 5.07492 24.9541 5.07492 24.3289V6.22368C5.07492 5.59849 5.5796 5.0921 6.20268 5.0921H24.2469C24.8699 5.0921 25.3746 5.59849 25.3746 6.22368V10.1842Z" fill="#F5F5EF"/>
<path id="Vector_7" d="M25.3746 36.7762C25.3746 37.4014 24.8699 37.9078 24.2469 37.9078H6.20268C5.5796 37.9078 5.07492 37.4014 5.07492 36.7762V33.9473C5.07492 33.3221 4.57025 32.8157 3.94716 32.8157H1.12776C0.504673 32.8157 0 33.3221 0 33.9473V36.5018C0 37.4014 0.355245 38.2642 0.98961 38.9036L4.08249 42.0069C4.71686 42.6434 5.57678 42.9999 6.47617 42.9999H23.9734C24.8699 42.9999 25.7299 42.6434 26.367 42.0069L29.4599 38.9036C30.0943 38.2671 30.4495 37.4042 30.4495 36.5018V33.9473C30.4495 33.3221 29.9449 32.8157 29.3218 32.8157H26.5024C25.8793 32.8157 25.3746 33.3221 25.3746 33.9473V36.7762Z" fill="#F5F5EF"/>
<path id="Vector_8" d="M68.5117 11.8109V29.7195C68.5117 30.1792 69.0164 30.5526 69.6395 30.5526H72.4589C73.082 30.5526 73.5866 30.1792 73.5866 29.7195V8.89562C73.5866 8.43592 73.082 8.0625 72.4589 8.0625H69.6395C69.0164 8.0625 68.5117 8.43592 68.5117 8.89562V11.8109Z" fill="#F5F5EF"/>
</g>
</g>
</g>
</svg>
